<?xml version="1.0" encoding="UTF-8" standalone="no"?>
<svg
   xmlns:dc="http://purl.org/dc/elements/1.1/"
   xmlns:cc="http://creativecommons.org/ns#"
   xmlns:rdf="http://www.w3.org/1999/02/22-rdf-syntax-ns#"
   xmlns:svg="http://www.w3.org/2000/svg"
   xmlns="http://www.w3.org/2000/svg"
   viewBox="0 0 1333.3333 1333.3333"
   height="1333.3333"
   width="1333.3333"
   xml:space="preserve"
   id="svg2"
   version="1.1"><metadata
     id="metadata8"><rdf:RDF><cc:Work
         rdf:about=""><dc:format>image/svg+xml</dc:format><dc:type
           rdf:resource="http://purl.org/dc/dcmitype/StillImage" /></cc:Work></rdf:RDF></metadata><defs
     id="defs6"><clipPath
       id="clipPath18"
       clipPathUnits="userSpaceOnUse"><path
         id="path16"
         d="M 0,1000 H 1000 V 0 H 0 Z" /></clipPath></defs><g
     transform="matrix(1.3333333,0,0,-1.3333333,0,1333.3333)"
     id="g10"><g
       id="g12"><g
         clip-path="url(#clipPath18)"
         id="g14"><g
           transform="translate(762.466,588.4002)"
           id="g20"><path
             id="path22"
             style="fill:#2979d9;fill-opacity:1;fill-rule:nonzero;stroke:none"
             d="m 0,0 c -5.797,24.607 -16.173,55.517 -30.471,88.511 -21.475,49.459 -51.652,103.429 -88.937,146.226 -18.666,21.387 -39.143,40.014 -61.546,53.684 -22.368,13.648 -46.872,22.338 -72.821,23.014 l -0.395,0.01 -0.396,-0.01 c -1.016,-0.029 -4.579,-0.052 -7.962,-0.051 -3.384,-0.001 -6.944,0.022 -7.966,0.051 l -0.398,0.01 -0.389,-0.01 c -19.752,-0.513 -38.725,-5.685 -56.486,-14.15 -31.109,-14.857 -58.737,-39.552 -83.163,-68.736 -36.59,-43.828 -66.033,-98.076 -86.659,-147.073 -10.301,-24.506 -18.369,-47.683 -23.928,-67.712 -2.779,-10.02 -4.932,-19.253 -6.416,-27.559 -1.477,-8.321 -2.312,-15.665 -2.321,-22.279 10e-4,-2.306 0.104,-4.535 0.359,-6.746 l 0.047,-0.282 -0.019,-0.003 c 0.341,-2.822 0.835,-5.628 1.429,-8.418 2.345,-11.901 6.377,-22.444 11.401,-31.397 7.66,-13.652 17.258,-23.73 25.935,-30.996 6.339,-4.15 13.302,-7.933 20.07,-11.104 4.588,-2.152 9.005,-4.012 13.063,-5.626 0.089,0.036 0.164,0.082 0.254,0.119 3.471,-1.532 7.038,-2.853 10.601,-4.179 3.479,-1.209 5.988,-1.996 7.024,-2.311 l 0.533,-0.16 v -0.001 l -0.048,-0.165 c 13.262,-4.358 26.87,-7.495 40.108,-9.42 18.423,-2.595 36.999,-3.336 55.328,-1.652 -5.505,1.351 -10.867,2.947 -16.272,4.47 -12.087,3.406 -24.017,7.067 -35.615,11.184 -44.044,15.892 -94.724,41.227 -103.345,90.895 -0.141,0.813 -0.364,1.579 -0.483,2.405 l -0.017,0.106 c -0.093,0.796 -0.161,1.914 -0.16,3.281 -0.032,6.056 1.389,16.486 4.396,29.161 5.232,22.286 15.107,51.899 28.781,83.412 20.483,47.301 49.637,99.056 83.99,138.391 17.152,19.679 35.571,36.22 54.507,47.75 18.918,11.518 38.142,18.05 57.731,18.601 1.88,-0.035 4.9,-0.049 8.128,-0.049 3.209,0 6.209,0.013 8.099,0.048 14.938,-0.417 29.608,-4.293 44.159,-11.215 25.514,-12.105 50.433,-33.818 72.976,-60.837 6.339,-7.576 12.417,-15.658 18.354,-23.938 -27.151,25.386 -84.305,69.985 -143.588,71.674 39.743,-9.288 65.131,-30.763 91.295,-51.006 52.671,-41.171 89.828,-99.533 118.105,-159.481 11.821,-27.793 25.42,-56.994 27.749,-87.126 -0.121,-0.906 -0.299,-1.757 -0.448,-2.638 -1.613,-7.369 -3.88,-14.287 -6.983,-20.603 -25.185,-51.268 -95.506,-69.648 -147.778,-84.485 8.244,-0.682 16.871,-0.917 25.684,-0.718 25.258,0.573 52.114,4.926 76.528,13.89 0.083,0.031 0.17,0.063 0.254,0.094 3.448,1.272 6.85,2.632 10.189,4.09 0.029,-0.012 0.052,-0.026 0.08,-0.038 9.432,3.918 20.362,9.104 29.83,15.343 1.738,1.14 3.41,2.318 5.018,3.517 0.955,0.808 1.896,1.562 2.865,2.436 7.495,6.783 15.307,15.574 21.743,26.707 3.611,6.237 6.685,13.301 9.081,21 1.336,4.033 2.464,8.208 3.321,12.563 1.199,3.86 1.531,8.436 1.192,13.436 l 0.001,0.021 C 5.166,-26.035 3.296,-14.121 0,0" /></g><g
           transform="translate(705.2877,436.3003)"
           id="g24"><path
             id="path26"
             style="fill:#2979d9;fill-opacity:1;fill-rule:nonzero;stroke:none"
             d="m 0,0 c 3.557,-2.744 6.729,-5.634 9.225,-8.671 6.372,-7.837 9.302,-16.112 9.375,-23.802 0,-1.831 -0.22,-3.589 -0.513,-5.42 -0.586,-3.222 -2.051,-6.518 -5.053,-10.18 -2.93,-3.662 -7.397,-7.617 -13.329,-11.498 -11.865,-7.69 -29.515,-14.795 -50.681,-20.507 -19.287,-5.199 -41.605,-9.218 -65.427,-12.111 l 1.523,-0.005 c -8.993,-0.983 -71.337,-5.126 -89.482,-43.711 -14.728,33.189 -78.983,42.323 -88.98,43.552 l -0.288,0.096 c -24.028,2.896 -46.535,6.94 -65.97,12.179 -21.165,5.712 -38.815,12.817 -50.68,20.507 -5.932,3.881 -10.4,7.836 -13.329,11.498 -3.003,3.662 -4.468,6.958 -5.054,10.18 -0.292,1.831 -0.512,3.589 -0.512,5.42 0.073,7.69 3.003,15.965 9.374,23.802 2.891,3.517 6.56,6.883 10.868,9.985 -7.857,3.573 -16.3,7.932 -24.119,13.058 -1.046,0.69 -2.047,1.434 -3.069,2.153 -2.208,-2.154 -4.408,-4.316 -6.31,-6.667 -10.034,-12.231 -16.039,-27.025 -16.039,-42.331 0,-3.589 0.366,-7.105 1.025,-10.693 1.538,-8.642 5.566,-16.552 11.059,-23.29 9.594,-11.864 23.289,-20.726 39.695,-28.196 24.754,-11.059 56.027,-18.969 91.034,-24.242 15.855,-2.395 32.524,-4.167 49.543,-5.457 l -0.308,-0.075 c 19.778,-2.2 31.642,-10.868 40.382,-22.505 8.38,-12.055 15.329,-25.127 20.717,-38.554 7.087,14.362 15.632,28.357 25.593,41.221 8.543,10.293 20.082,17.808 38.336,19.838 l -1.049,0.254 c 16.309,1.281 32.303,2.978 47.525,5.278 35.007,5.273 66.28,13.183 91.034,24.242 16.405,7.47 30.101,16.332 39.695,28.196 5.492,6.738 9.52,14.648 11.059,23.29 0.659,3.588 1.025,7.104 1.025,10.693 0,15.306 -6.005,30.1 -16.039,42.331 -1.52,1.878 -3.324,3.573 -5.041,5.326 C 25.539,14.271 24.274,13.346 22.96,12.478 15.5,7.572 7.527,3.467 0,0" /></g><g
           transform="translate(501.8345,363.0393)"
           id="g28"><path
             id="path30"
             style="fill:#cf2372;fill-opacity:1;fill-rule:nonzero;stroke:none"
             d="m 0,0 c 14.762,29.913 35.673,58.365 63.083,77.899 4.758,3.39 9.719,6.496 14.871,9.307 4.05,2.211 8.193,4.276 12.489,6.086 C 81.45,92.308 72.854,89.966 64.657,86.643 L 62.699,85.836 C 37.442,75 16.339,54.322 0.961,31.227 -2.299,36.702 -5.805,41.89 -9.698,46.962 -28.771,71.665 -57.782,91.975 -89.374,93.291 -46.756,78.389 -16.343,40.728 0,0" /></g><g
           transform="translate(461.8609,571.3994)"
           id="g32"><path
             id="path34"
             style="fill:#ffffff;fill-opacity:1;fill-rule:nonzero;stroke:none"
             d="m 0,0 c 3.849,-2.596 15.64,-9.201 32.164,-5.499 3.764,0.843 7.558,1.269 7.558,1.269 0,0 3.792,-0.426 7.557,-1.269 16.527,-3.703 28.32,2.906 32.166,5.501 C 68.311,12.794 50.063,12.982 43.071,9.127 41.454,8.236 39.723,7.275 39.723,7.275 c 0,0 -1.731,0.961 -3.347,1.852 C 29.383,12.982 11.134,12.794 0,0" /></g><g
           transform="translate(425.2545,585.0617)"
           id="g36"><path
             id="path38"
             style="fill:#ffe9bd;fill-opacity:1;fill-rule:nonzero;stroke:none"
             d="m 0,0 c 0,0 7.779,14.425 20.97,24.674 12.068,9.377 29.477,16.472 48.021,3.352 3.221,-2.279 5.396,-5.943 8.124,-5.73 3.132,0.917 4.511,2.736 8.123,5.73 17.493,14.493 35.953,6.025 48.023,-3.352 C 146.45,14.425 154.23,0 154.23,0 c 13.821,7.14 23.756,20.627 30.566,33.433 0.009,0.319 0.021,0.638 0.036,0.955 0.148,3.085 0.349,6.152 0.349,9.288 0,3.246 -0.104,6.457 -0.288,9.637 -0.185,3.18 -0.45,6.331 -0.771,9.457 l 10e-4,10e-4 c -0.71,6.905 -1.858,13.608 -3.246,20.177 -1.389,0.758 -2.782,1.505 -4.184,2.183 -28.051,13.622 -99.531,15.013 -99.531,15.013 0,0 -71.553,-1.391 -99.603,-15.013 -1.41,-0.682 -2.811,-1.433 -4.208,-2.196 -1.388,-6.565 -2.535,-13.264 -3.244,-20.165 -0.642,-6.252 -1.058,-12.602 -1.058,-19.095 0,-3.135 0.2,-6.202 0.349,-9.287 0.015,-0.317 0.027,-0.635 0.036,-0.955 C -23.756,20.628 -13.821,7.141 0,0" /></g><g
           transform="translate(502.417,685.2061)"
           id="g40"><path
             id="path42"
             style="fill:#cf2372;fill-opacity:1;fill-rule:nonzero;stroke:none"
             d="m 0,0 c 0,0 71.48,-1.392 99.53,-15.014 1.403,-0.677 2.795,-1.425 4.184,-2.183 26.381,-14.399 49.1,-43.591 24.818,-99.251 -17.87,-41.013 -20.433,-60.499 -20.433,-99.53 61.419,28.746 81.074,98.065 81.074,98.065 0,0 -33.836,117.84 -97.845,202.869 C 59.03,127.946 0,127.36 0,127.36 c 0,0 -59.103,0.586 -91.4,-42.404 -64.01,-85.029 -97.773,-202.869 -97.773,-202.869 0,0 15.305,-53.736 81.074,-98.065 0,39.343 -2.636,58.517 -20.506,99.53 -24.275,55.643 -1.577,84.834 24.793,99.238 1.397,0.763 2.798,1.515 4.209,2.196 C -71.553,-1.392 0,0 0,0" /></g><g
           transform="translate(498.237,580.5259)"
           id="g44"><path
             id="path46"
             style="fill:#9b9590;fill-opacity:1;fill-rule:nonzero;stroke:none"
             d="m 0,0 c 1.616,-0.891 3.347,-1.852 3.347,-1.852 0,0 1.731,0.961 3.347,1.852 6.992,3.855 25.241,3.668 36.375,-9.125 -3.846,-2.595 -15.639,-9.203 -32.166,-5.501 -3.765,0.843 -7.558,1.269 -7.558,1.269 0,0 -3.793,-0.426 -7.557,-1.269 -16.524,-3.701 -28.315,2.904 -32.164,5.499 C -25.242,3.667 -6.993,3.855 0,0 m -65.074,-59.665 c 9.578,-10.515 20.549,-18.829 32.486,-24.374 8.953,-4.159 18.45,-6.759 28.31,-7.561 l 0.573,-0.038 1.968,-0.134 c 1.324,-0.066 2.619,-0.268 3.954,-0.268 l 1.915,0.126 1.916,-0.126 c 1.334,0 2.63,0.203 3.953,0.268 l 1.969,0.134 0.573,0.038 c 23.007,1.872 44.034,13.535 60.795,31.935 2.394,2.628 4.701,5.394 6.915,8.289 17.252,22.561 28.736,52.962 31.436,86.928 0.015,0.179 0.039,0.353 0.053,0.531 0.055,0.72 0.166,1.417 0.214,2.141 -0.045,-0.085 -0.098,-0.171 -0.143,-0.256 -6.81,-12.805 -16.744,-26.292 -30.566,-33.432 0,0 -7.779,14.425 -20.969,24.674 C 48.209,38.587 29.749,47.055 12.256,32.561 8.644,29.568 7.264,27.749 4.132,26.832 1.405,26.619 -0.77,30.283 -3.991,32.561 -22.536,45.682 -39.945,38.587 -52.013,29.21 -65.203,18.961 -72.982,4.536 -72.982,4.536 c -13.822,7.14 -23.757,20.627 -30.566,33.433 -0.046,0.085 -0.098,0.17 -0.143,0.255 0.055,-0.844 0.161,-1.668 0.227,-2.507 0.003,-0.038 0.007,-0.076 0.01,-0.113 0.906,-11.343 2.8,-22.276 5.557,-32.664 0.462,-1.744 0.958,-3.461 1.469,-5.172 2.057,-6.886 4.433,-13.555 7.23,-19.86 3.182,-7.173 6.819,-13.937 10.857,-20.223 4.039,-6.286 8.479,-12.093 13.267,-17.35" /></g><g
           transform="translate(64.5641,176.6217)"
           id="g48"><path
             id="path50"
             style="fill:#2979d9;fill-opacity:1;fill-rule:nonzero;stroke:none"
             d="m 0,0 c 3.658,2.435 7.949,3.651 12.88,3.651 2.729,0 5.261,-0.39 7.603,-1.162 2.338,-0.776 4.409,-1.892 6.208,-3.347 1.798,-1.459 3.268,-3.219 4.416,-5.278 1.148,-2.064 1.906,-4.413 2.278,-7.045 h 20.368 c -0.651,5.518 -2.131,10.413 -4.441,14.694 -2.31,4.276 -5.293,7.895 -8.951,10.856 -3.658,2.961 -7.852,5.214 -12.58,6.766 -4.727,1.548 -9.848,2.324 -15.365,2.324 -8.372,0 -15.902,-1.913 -22.6,-5.743 -6.694,-3.826 -11.997,-9.383 -15.902,-16.667 -3.905,-7.288 -5.861,-16.12 -5.861,-26.505 0,-10.356 1.931,-19.174 5.789,-26.458 3.862,-7.288 9.13,-12.852 15.813,-16.696 6.68,-3.844 14.264,-5.764 22.761,-5.764 6.107,0 11.585,0.922 16.438,2.768 4.849,1.841 9.033,4.351 12.551,7.53 3.519,3.179 6.326,6.791 8.418,10.835 2.092,4.045 3.401,8.254 3.93,12.623 l -20.368,0.093 c -0.465,-2.539 -1.295,-4.802 -2.486,-6.787 -1.194,-1.984 -2.689,-3.665 -4.487,-5.045 -1.799,-1.381 -3.852,-2.425 -6.162,-3.14 -2.31,-0.712 -4.813,-1.069 -7.509,-1.069 -4.806,0 -9.036,1.18 -12.695,3.536 -3.658,2.353 -6.504,5.84 -8.532,10.46 -2.031,4.62 -3.046,10.324 -3.046,17.114 0,6.601 1.008,12.219 3.021,16.853 C -6.494,-5.968 -3.658,-2.435 0,0" /></g><g
           transform="translate(178.2314,126.1479)"
           id="g52"><path
             id="path54"
             style="fill:#2979d9;fill-opacity:1;fill-rule:nonzero;stroke:none"
             d="m 0,0 c -1.194,-3.161 -2.9,-5.621 -5.117,-7.37 -2.217,-1.752 -4.921,-2.628 -8.114,-2.628 -3.254,0 -5.989,0.89 -8.207,2.675 -2.217,1.78 -3.904,4.262 -5.067,7.437 -1.165,3.179 -1.745,6.845 -1.745,11 0,4.123 0.573,7.749 1.72,10.878 1.148,3.132 2.836,5.582 5.067,7.348 2.235,1.767 4.978,2.65 8.232,2.65 3.193,0 5.904,-0.851 8.139,-2.557 2.231,-1.705 3.933,-4.123 5.113,-7.252 C 1.198,19.049 1.788,15.358 1.788,11.114 1.788,6.866 1.191,3.161 0,0 M 1.37,34.826 H 0.765 c -0.869,1.924 -2.131,3.883 -3.79,5.882 -1.659,2.003 -3.826,3.676 -6.508,5.024 -2.682,1.348 -6.022,2.021 -10.02,2.021 -5.242,0 -10.052,-1.356 -14.44,-4.066 -4.387,-2.714 -7.899,-6.791 -10.531,-12.23 -2.635,-5.442 -3.955,-12.254 -3.955,-20.436 0,-7.967 1.281,-14.686 3.837,-20.157 2.557,-5.472 6.029,-9.612 10.417,-12.416 4.388,-2.807 9.29,-4.209 14.718,-4.209 3.841,0 7.106,0.637 9.788,1.906 2.682,1.27 4.866,2.875 6.554,4.813 1.692,1.938 3.001,3.898 3.93,5.883 h 0.837 v -11.44 h 19.532 v 95.23 H 1.37 Z" /></g><g
           transform="translate(261.3925,131.9587)"
           id="g56"><path
             id="path58"
             style="fill:#2979d9;fill-opacity:1;fill-rule:nonzero;stroke:none"
             d="m 0,0 c 0.032,-3.193 -0.597,-5.875 -1.885,-8.042 -1.283,-2.171 -2.968,-3.809 -5.042,-4.906 -2.077,-1.102 -4.312,-1.652 -6.697,-1.652 -3.751,0 -6.744,1.226 -8.976,3.672 -2.231,2.45 -3.361,5.782 -3.393,9.998 V 41.012 H -45.8 V -4.463 c 0.028,-5.578 1.058,-10.37 3.089,-14.368 2.032,-3.998 4.86,-7.084 8.486,-9.254 3.63,-2.171 7.828,-3.254 12.602,-3.254 5.363,0 9.912,1.269 13.649,3.812 3.733,2.542 6.408,5.907 8.02,10.091 H 0.79 v -12.973 h 19.02 v 71.421 l -19.81,0 z" /></g><g
           transform="translate(334.1157,173.9934)"
           id="g60"><path
             id="path62"
             style="fill:#2979d9;fill-opacity:1;fill-rule:nonzero;stroke:none"
             d="m 0,0 c -3.998,0 -7.531,-1.137 -10.599,-3.415 -3.072,-2.281 -5.257,-5.636 -6.558,-10.07 h -0.744 v 12.462 h -19.203 v -71.421 h 19.807 v 40.407 c 0,2.915 0.658,5.486 1.978,7.721 1.316,2.231 3.114,3.973 5.392,5.228 2.278,1.259 4.874,1.884 7.789,1.884 1.366,0 2.867,-0.107 4.512,-0.325 1.642,-0.218 2.929,-0.465 3.859,-0.744 V -0.697 C 5.364,-0.479 4.355,-0.308 3.211,-0.186 2.063,-0.061 0.994,0 0,0" /></g><g
           transform="translate(393.0072,126.1479)"
           id="g64"><path
             id="path66"
             style="fill:#2979d9;fill-opacity:1;fill-rule:nonzero;stroke:none"
             d="m 0,0 c -1.194,-3.161 -2.9,-5.621 -5.117,-7.37 -2.217,-1.752 -4.921,-2.628 -8.114,-2.628 -3.254,0 -5.989,0.89 -8.207,2.675 -2.217,1.78 -3.904,4.262 -5.067,7.437 -1.165,3.179 -1.745,6.845 -1.745,11 0,4.123 0.573,7.749 1.72,10.878 1.148,3.132 2.836,5.582 5.067,7.348 2.235,1.767 4.978,2.65 8.232,2.65 3.193,0 5.904,-0.851 8.139,-2.557 2.231,-1.705 3.933,-4.123 5.113,-7.252 C 1.198,19.049 1.788,15.358 1.788,11.114 1.788,6.866 1.191,3.161 0,0 M 1.37,34.826 H 0.765 c -0.869,1.924 -2.131,3.883 -3.79,5.882 -1.659,2.003 -3.826,3.676 -6.508,5.024 -2.682,1.348 -6.022,2.021 -10.02,2.021 -5.242,0 -10.052,-1.356 -14.44,-4.066 -4.387,-2.714 -7.899,-6.791 -10.531,-12.23 -2.635,-5.442 -3.955,-12.254 -3.955,-20.436 0,-7.967 1.281,-14.686 3.837,-20.157 2.557,-5.472 6.029,-9.612 10.417,-12.416 4.388,-2.807 9.29,-4.209 14.718,-4.209 3.841,0 7.106,0.637 9.788,1.906 2.682,1.27 4.866,2.875 6.554,4.813 1.692,1.938 3.001,3.898 3.93,5.883 h 0.837 v -11.44 h 19.532 v 95.23 H 1.37 Z" /></g><g
           transform="translate(447.1446,144.4672)"
           id="g68"><path
             id="path70"
             style="fill:#2979d9;fill-opacity:1;fill-rule:nonzero;stroke:none"
             d="m 0,0 c 0.121,2.556 0.718,4.92 1.915,7.045 1.302,2.31 3.107,4.155 5.417,5.535 2.31,1.377 4.967,2.067 7.975,2.067 2.882,0 5.417,-0.626 7.602,-1.881 C 25.094,11.511 26.807,9.78 28.048,7.581 29.288,5.378 29.907,2.854 29.907,0 Z m 38.858,20.415 c -3.054,3.004 -6.619,5.26 -10.696,6.765 -4.077,1.502 -8.468,2.253 -13.181,2.253 -7.005,0 -13.105,-1.548 -18.298,-4.648 -5.192,-3.101 -9.215,-7.424 -12.065,-12.974 -2.853,-5.55 -4.28,-11.997 -4.28,-19.342 0,-7.534 1.427,-14.053 4.28,-19.553 2.85,-5.503 6.92,-9.751 12.205,-12.741 5.285,-2.993 11.6,-4.488 18.949,-4.488 5.889,0 11.088,0.905 15.601,2.722 4.509,1.813 8.2,4.352 11.068,7.624 2.864,3.271 4.763,7.105 5.692,11.51 l -18.319,1.209 c -0.683,-1.799 -1.673,-3.318 -2.975,-4.559 -1.302,-1.241 -2.868,-2.171 -4.695,-2.789 -1.831,-0.619 -3.848,-0.93 -6.047,-0.93 -3.319,0 -6.183,0.697 -8.604,2.092 -2.417,1.394 -4.284,3.379 -5.603,5.954 -1.316,2.571 -1.974,5.624 -1.974,9.157 v 0.047 h 48.636 v 5.442 c 0,6.076 -0.851,11.383 -2.557,15.924 -1.706,4.541 -4.084,8.318 -7.137,11.325" /></g><g
           transform="translate(542.6623,116.779)"
           id="g72"><path
             id="path74"
             style="fill:#2979d9;fill-opacity:1;fill-rule:nonzero;stroke:none"
             d="m 0,0 c -0.93,-0.172 -1.859,-0.257 -2.789,-0.257 -1.334,0 -2.503,0.2 -3.512,0.604 -1.008,0.404 -1.788,1.108 -2.349,2.117 -0.558,1.005 -0.837,2.424 -0.837,4.255 V 41.312 H 3.951 v 14.88 H -9.487 V 73.306 H -29.294 V 56.192 h -9.766 v -14.88 h 9.766 v -37.2 c -0.032,-4.681 0.944,-8.553 2.929,-11.621 1.985,-3.072 4.767,-5.336 8.346,-6.791 3.583,-1.455 7.76,-2.092 12.534,-1.906 2.571,0.093 4.756,0.347 6.554,0.765 1.799,0.422 3.194,0.783 4.188,1.094 L 2.138,0.393 C 1.645,0.3 0.93,0.168 0,0" /></g><g
           transform="translate(596.5977,173.9934)"
           id="g76"><path
             id="path78"
             style="fill:#2979d9;fill-opacity:1;fill-rule:nonzero;stroke:none"
             d="m 0,0 c -3.998,0 -7.531,-1.137 -10.599,-3.415 -3.072,-2.281 -5.257,-5.636 -6.558,-10.07 h -0.744 v 12.462 h -19.203 v -71.421 h 19.807 v 40.407 c 0,2.915 0.658,5.486 1.978,7.721 1.316,2.231 3.114,3.973 5.392,5.228 2.278,1.259 4.874,1.884 7.789,1.884 1.366,0 2.867,-0.107 4.512,-0.325 1.642,-0.218 2.929,-0.465 3.859,-0.744 V -0.697 C 5.364,-0.479 4.355,-0.308 3.211,-0.186 2.063,-0.061 0.994,0 0,0" /></g><g
           transform="translate(655.2603,126.0084)"
           id="g80"><path
             id="path82"
             style="fill:#2979d9;fill-opacity:1;fill-rule:nonzero;stroke:none"
             d="m 0,0 c -1.134,-3.254 -2.8,-5.822 -4.999,-7.695 -2.203,-1.878 -4.946,-2.815 -8.232,-2.815 -3.318,0 -6.1,0.937 -8.346,2.815 -2.249,1.873 -3.937,4.441 -5.067,7.695 -1.134,3.254 -1.699,6.959 -1.699,11.114 0,4.152 0.565,7.856 1.699,11.11 1.13,3.258 2.818,5.829 5.067,7.721 2.246,1.891 5.028,2.835 8.346,2.835 3.286,0 6.029,-0.944 8.232,-2.835 C -2.8,28.053 -1.134,25.482 0,22.224 1.13,18.97 1.695,15.266 1.695,11.114 1.695,6.959 1.13,3.254 0,0 m 5.392,43.268 c -5.253,3.083 -11.492,4.624 -18.716,4.624 -7.223,0 -13.46,-1.541 -18.716,-4.624 -5.253,-3.086 -9.308,-7.395 -12.158,-12.926 -2.854,-5.536 -4.281,-11.99 -4.281,-19.368 0,-7.316 1.427,-13.742 4.281,-19.274 2.85,-5.535 6.905,-9.844 12.158,-12.927 5.256,-3.086 11.493,-4.627 18.716,-4.627 7.224,0 13.463,1.541 18.716,4.627 5.253,3.083 9.309,7.392 12.159,12.927 2.853,5.532 4.28,11.958 4.28,19.274 0,7.378 -1.427,13.832 -4.28,19.368 -2.85,5.531 -6.906,9.84 -12.159,12.926" /></g><g
           transform="translate(735.8182,131.9587)"
           id="g84"><path
             id="path86"
             style="fill:#2979d9;fill-opacity:1;fill-rule:nonzero;stroke:none"
             d="m 0,0 c 0.032,-3.193 -0.597,-5.875 -1.884,-8.042 -1.284,-2.171 -2.968,-3.809 -5.043,-4.906 -2.077,-1.102 -4.312,-1.652 -6.697,-1.652 -3.751,0 -6.744,1.226 -8.976,3.672 -2.231,2.45 -3.361,5.782 -3.393,9.998 V 41.012 H -45.8 V -4.463 c 0.028,-5.578 1.058,-10.37 3.089,-14.368 2.032,-3.998 4.86,-7.084 8.486,-9.254 3.63,-2.171 7.828,-3.254 12.602,-3.254 5.363,0 9.912,1.269 13.649,3.812 3.733,2.542 6.408,5.907 8.021,10.091 H 0.79 V -30.409 H 19.807 V 41.012 L 0,41.012 Z" /></g><g
           transform="translate(802.2621,121.8711)"
           id="g88"><path
             id="path90"
             style="fill:#2979d9;fill-opacity:1;fill-rule:nonzero;stroke:none"
             d="m 0,0 h -0.744 l -14.833,51.1 h -20.926 l 24.974,-71.422 H 10.785 L 35.759,51.1 H 14.79 Z" /></g><g
           transform="translate(862.5652,144.4672)"
           id="g92"><path
             id="path94"
             style="fill:#2979d9;fill-opacity:1;fill-rule:nonzero;stroke:none"
             d="m 0,0 c 0.126,2.556 0.721,4.92 1.918,7.045 1.301,2.31 3.103,4.155 5.413,5.535 2.31,1.377 4.971,2.067 7.975,2.067 2.889,0 5.421,-0.626 7.609,-1.881 C 25.097,11.511 26.813,9.78 28.05,7.581 29.288,5.378 29.91,2.854 29.91,0 Z m 38.864,20.415 c -3.054,3.004 -6.623,5.26 -10.699,6.765 -4.077,1.502 -8.468,2.253 -13.181,2.253 -7.009,0 -13.102,-1.548 -18.294,-4.648 -5.2,-3.101 -9.219,-7.424 -12.073,-12.974 -2.846,-5.55 -4.276,-11.997 -4.276,-19.342 0,-7.534 1.43,-14.053 4.276,-19.553 2.854,-5.503 6.923,-9.751 12.209,-12.741 5.285,-2.993 11.6,-4.488 18.952,-4.488 5.886,0 11.085,0.905 15.598,2.722 4.513,1.813 8.196,4.352 11.064,7.624 2.868,3.271 4.77,7.105 5.7,11.51 l -18.323,1.209 c -0.68,-1.799 -1.674,-3.318 -2.975,-4.559 -1.302,-1.241 -2.868,-2.171 -4.699,-2.789 -1.831,-0.619 -3.841,-0.93 -6.043,-0.93 -3.319,0 -6.187,0.697 -8.604,2.092 -2.417,1.394 -4.284,3.379 -5.6,5.954 -1.323,2.571 -1.981,5.624 -1.981,9.157 v 0.047 h 48.64 v 5.442 c 0,6.076 -0.852,11.383 -2.554,15.924 -1.709,4.541 -4.083,8.318 -7.137,11.325" /></g><g
           transform="translate(964.3578,173.8075)"
           id="g96"><path
             id="path98"
             style="fill:#2979d9;fill-opacity:1;fill-rule:nonzero;stroke:none"
             d="m 0,0 c -1.144,0.125 -2.217,0.186 -3.204,0.186 -3.998,0 -7.538,-1.137 -10.606,-3.415 -3.068,-2.281 -5.25,-5.636 -6.551,-10.07 h -0.744 v 12.462 h -19.21 v -71.421 h 19.811 v 40.407 c 0,2.915 0.658,5.486 1.974,7.721 1.323,2.231 3.118,3.973 5.399,5.228 2.275,1.258 4.871,1.884 7.789,1.884 1.358,0 2.86,-0.107 4.505,-0.325 1.645,-0.218 2.932,-0.465 3.862,-0.744 V -0.511 C 2.16,-0.293 1.151,-0.122 0,0" /></g></g></g></g></svg>